<?xml version="1.0" encoding="UTF-8" standalone="no"?>
<!DOCTYPE svg PUBLIC "-//W3C//DTD SVG 1.1//EN" "http://www.w3.org/Graphics/SVG/1.1/DTD/svg11.dtd">
<svg width="100%" height="100%" viewBox="0 0 69 79" version="1.1" xmlns="http://www.w3.org/2000/svg" xmlns:xlink="http://www.w3.org/1999/xlink" xml:space="preserve" xmlns:serif="http://www.serif.com/" style="fill-rule:evenodd;clip-rule:evenodd;stroke-linecap:round;stroke-linejoin:round;stroke-miterlimit:1.5;">
    <g transform="matrix(1,0,0,1,575.025,-634.502)">
        <g transform="matrix(3.58537,0,0,3.58537,1315.62,-1836.9)">
            <path d="M-517.75,690L-508.873,695.125L-508.873,705.375L-517.75,710.5L-526.627,705.375L-526.627,695.125L-517.75,690Z" style="fill:#020c1b;"/>
        </g>
        <g transform="matrix(43.0244,0,0,43.0244,-554.873,688.886)">
            <path d="M0.331,-0.716L0.475,-0.716L0.475,-0.263C0.475,-0.203 0.47,-0.158 0.459,-0.126C0.445,-0.084 0.42,-0.051 0.383,-0.026C0.347,-0 0.298,0.012 0.238,0.012C0.167,0.012 0.113,-0.008 0.075,-0.047C0.037,-0.087 0.017,-0.145 0.017,-0.221L0.153,-0.237C0.155,-0.196 0.161,-0.167 0.171,-0.15C0.187,-0.124 0.211,-0.111 0.243,-0.111C0.275,-0.111 0.298,-0.121 0.311,-0.139C0.324,-0.157 0.331,-0.195 0.331,-0.253L0.331,-0.716Z" style="fill:#64ffda;fill-rule:nonzero;"/>
        </g>
    </g>
</svg>
